<svg xmlns="http://www.w3.org/2000/svg" xmlns:xlink="http://www.w3.org/1999/xlink" version="1.1" x="0px" y="0px" viewBox="0 0 100.0 100"><path d="M36,955 c-36,-495,424,-955,919,-919 l35,212 l-247,71 c-53,17,-124,-53,-124,-53 c-141,35,-318,212,-354,353 c0,0,71,71,54,124 l-71,247 Z M738,602 c0,75,-61,136,-137,136 l0,-137 Z M969,601 c-2,203,-165,367,-368,368 l-1,-116 c140,-1,252,-113,253,-253 Z M1200,602 c0,330,-269,598,-599,598 l0,-116 c267,0,483,-216,483,-482 Z M1200,602 " fill="#000000" stroke="none" stroke-dasharray="none" stroke-linecap="inherit" stroke-linejoin="inherit" stroke-width="1" transform="matrix(0.05,0.0,0.0,-0.05,20.0,80.0)"></path></svg>